<svg width="22" height="26" viewBox="0 0 22 26" fill="none" xmlns="http://www.w3.org/2000/svg">
<path d="M17.6667 9C17.6667 7.02981 16.9643 5.14033 15.714 3.74721C14.4638 2.35407 12.7681 1.57143 11 1.57143C9.23189 1.57143 7.5362 2.35407 6.28596 3.74721C5.03571 5.14033 4.33333 7.02981 4.33333 9C4.33333 17.6667 1 20.1429 1 20.1429H21C21 20.1429 17.6667 17.6667 17.6667 9Z" stroke="white" stroke-width="2" stroke-linecap="round" stroke-linejoin="round"/>
<path d="M13.8571 23C13.6394 23.4345 13.3269 23.7952 12.9507 24.0458C12.5746 24.2965 12.1483 24.4286 11.7143 24.4286C11.2802 24.4286 10.8539 24.2965 10.4779 24.0458C10.1018 23.7952 9.78917 23.4345 9.57141 23" stroke="white" stroke-width="2" stroke-linecap="round" stroke-linejoin="round"/>
</svg>
