<svg width="35" height="35" viewBox="0 0 35 35" fill="none" xmlns="http://www.w3.org/2000/svg">
<rect x="0.5" y="0.5" width="34" height="34" rx="4.5" fill="#6666FF"/>
<rect x="0.5" y="0.5" width="34" height="34" rx="4.5" stroke="#6666FF"/>
<path d="M22.8401 23.0009C20.9923 23.0009 19.1451 23.004 17.2972 22.9965C17.1113 22.9959 17.0375 23.0541 16.983 23.2223C16.4336 24.932 14.6787 26.1183 12.9014 25.9907C10.9061 25.8475 9.35316 24.4949 9.05181 22.6369C8.71455 20.5595 10.0616 18.5871 12.1454 18.1081C14.2363 17.6272 16.3444 18.7935 16.9895 20.799C17.0459 20.9747 17.1331 21.0016 17.2947 21.0016C20.9897 20.9985 21.0264 20.9985 24.7215 20.9997C25.3819 20.9997 25.8333 21.435 25.8121 22.0435C25.7929 22.5975 25.346 22.9959 24.724 22.9996C23.8764 23.0046 26.6865 23.0009 25.8389 23.0009C24.8393 23.0009 23.8397 23.0009 22.8401 23.0009ZM13.0828 20.0054C11.9544 20.0098 11.0388 20.9059 11.042 22.0016C11.0452 23.106 11.9794 24.0046 13.1136 23.9952C14.2344 23.9858 15.1564 23.0716 15.1416 21.9828C15.1275 20.8778 14.2138 20.001 13.0828 20.0054Z" fill="white"/>
<path d="M26.0002 13.9965C25.9898 15.9615 24.4934 17.6698 22.5203 17.9533C20.4513 18.2506 18.5313 17.1085 17.914 15.2018C17.8557 15.0222 17.7624 15.0028 17.603 15.0028C13.8699 15.0053 13.8328 15.0053 10.099 15.004C9.44476 15.004 8.98873 14.5747 9.00039 13.979C9.00946 13.5134 9.34371 13.1204 9.81594 13.0328C9.94938 13.0078 10.0887 13.0028 10.2253 13.0028C13.9021 13.0015 13.8829 12.9997 17.5596 13.0059C17.7676 13.0065 17.8634 12.9621 17.9302 12.7544C18.4743 11.0629 20.2881 9.86953 22.0727 10.0116C24.0756 10.1705 25.6413 11.5222 25.9302 13.3451C25.9632 13.561 25.9768 13.7794 26.0002 13.9965ZM21.8473 15.999C22.9887 16.0015 23.9137 15.1173 23.9234 14.0153C23.9331 12.9233 23.0029 12.0141 21.8693 12.0072C20.7227 12.0003 19.7802 12.902 19.7809 14.0065C19.7815 15.1035 20.7072 15.9965 21.8473 15.999Z" fill="white"/>
</svg>
