<svg width="24" height="24" viewBox="0 0 24 24" fill="none" xmlns="http://www.w3.org/2000/svg">
<rect x="0.5" y="0.5" width="23" height="23" rx="4.5" fill="white"/>
<rect x="0.5" y="0.5" width="23" height="23" rx="4.5" stroke="#6666FF"/>
<path d="M8.18013 17C8.01149 16.8233 7.84284 16.647 7.66945 16.4652C7.82961 16.3119 7.98977 16.1583 8.16214 15.9931C8.09971 15.95 8.06713 15.9266 8.03388 15.9046C7.23105 15.3735 6.81063 14.6274 6.78519 13.6652C6.77534 13.2973 6.78145 12.9293 6.78519 12.561C6.78586 12.484 6.76652 12.4447 6.69052 12.4097C6.24431 12.2056 5.99966 11.8535 6 11.3631C6.00034 10.8731 6.24499 10.52 6.69187 10.3182C6.7784 10.2792 6.78383 10.2284 6.78383 10.1531C6.78281 8.74429 6.78179 7.33549 6.78349 5.92669C6.78451 4.99507 7.40648 4.22216 8.31755 4.04344C8.55541 3.99697 8.80583 4.00783 9.05048 4.00376C9.37996 3.99833 9.71046 3.98375 10.0304 4.09465C10.6928 4.32458 11.1129 4.77937 11.2968 5.45223C11.3171 5.52718 11.3433 5.56279 11.4227 5.58212C12.2781 5.78968 12.8726 6.54698 12.8787 7.42977C12.8794 7.55152 12.8787 7.67361 12.8787 7.80249C11.6093 7.80249 10.3494 7.80249 9.08916 7.80249C8.96531 7.0557 9.27002 5.93008 10.5296 5.56788C10.443 5.17787 10.0742 4.82889 9.61884 4.78548C9.23846 4.74919 8.84723 4.75021 8.46787 4.79531C7.95889 4.85602 7.5534 5.33014 7.55001 5.84428C7.54017 7.28665 7.54594 8.72936 7.54594 10.1721C7.54594 10.1839 7.55069 10.1958 7.55612 10.2216C7.60023 10.2216 7.64536 10.2216 7.69049 10.2216C9.39625 10.2216 11.102 10.2209 12.8078 10.2236C12.9028 10.2236 12.951 10.2012 12.9971 10.1087C13.2031 9.69422 13.5465 9.47175 14.0096 9.46259C14.5257 9.45242 15.0425 9.45208 15.5586 9.46259C16.0218 9.47209 16.3652 9.69422 16.5705 10.1093C16.617 10.2029 16.6665 10.2246 16.7605 10.2233C17.1032 10.2185 17.4463 10.2209 17.789 10.2216C18.4143 10.2223 18.8341 10.555 18.9807 11.1651C18.9844 11.181 18.9936 11.1959 19 11.2115C19 11.3214 19 11.4316 19 11.5415C18.9929 11.5517 18.982 11.5609 18.9796 11.5717C18.8952 11.979 18.6573 12.2585 18.28 12.4287C18.2457 12.4443 18.2162 12.5105 18.2155 12.5535C18.2101 12.9422 18.2179 13.3312 18.2097 13.7198C18.1999 14.2031 18.0618 14.6504 17.8049 15.0608C17.5671 15.4406 17.2498 15.7388 16.845 15.9779C17.0177 16.1356 17.1823 16.2855 17.3512 16.4394C17.1578 16.6416 16.9868 16.8206 16.8158 16.9993C16.8073 16.9993 16.7988 16.9993 16.7904 16.9993C16.58 16.7857 16.3679 16.5741 16.1609 16.3574C16.0978 16.2912 16.0408 16.2637 15.9424 16.2807C15.7894 16.3072 15.6309 16.3126 15.4748 16.3126C13.4901 16.3146 11.5058 16.3146 9.52112 16.3122C9.3484 16.3119 9.17603 16.2861 9.00298 16.277C8.96599 16.2749 8.91577 16.2827 8.89202 16.3065C8.6606 16.5351 8.4336 16.7677 8.20524 16.9993C8.19709 17 8.18861 17 8.18013 17ZM7.5456 12.5125C7.5456 12.9096 7.54153 13.2979 7.54628 13.6859C7.55849 14.6993 8.39831 15.5468 9.41287 15.5502C11.4695 15.557 13.5261 15.556 15.5827 15.5505C16.4483 15.5482 17.2454 14.9248 17.3882 14.0729C17.4727 13.5699 17.4317 13.046 17.4463 12.5315C17.4466 12.5254 17.4364 12.5186 17.4323 12.5132C17.1877 12.5132 16.9437 12.5132 16.6862 12.5132C16.6862 12.7662 16.6862 13.0134 16.6862 13.2589C15.4097 13.2589 14.1471 13.2589 12.8753 13.2589C12.8753 13.0059 12.8753 12.7621 12.8753 12.5128C11.0986 12.5125 9.33144 12.5125 7.5456 12.5125ZM15.9268 12.5013C15.9268 11.8746 15.9275 11.2621 15.9264 10.6492C15.9261 10.3725 15.7724 10.2219 15.4918 10.2216C15.0181 10.2209 14.5444 10.2209 14.0707 10.2216C13.7921 10.2219 13.6411 10.3735 13.6408 10.6537C13.6401 11.2326 13.6405 11.8118 13.6408 12.3907C13.6408 12.427 13.6455 12.4633 13.6479 12.501C14.4097 12.5013 15.1609 12.5013 15.9268 12.5013ZM12.8739 10.9833C12.8281 10.9833 12.7949 10.9833 12.7616 10.9833C10.9045 10.9833 9.04743 10.9833 7.18999 10.9833C7.16454 10.9833 7.1391 10.9816 7.11399 10.9843C6.95824 11.0023 6.84423 11.0803 6.78586 11.2271C6.68034 11.4917 6.8768 11.7443 7.18796 11.7443C9.04505 11.7447 10.9021 11.7447 12.7596 11.7443C12.7962 11.7443 12.8329 11.7406 12.8743 11.7382C12.8739 11.4869 12.8739 11.2431 12.8739 10.9833ZM9.91235 7.04111C10.6249 7.04111 11.3293 7.04111 12.0355 7.04111C11.9187 6.6121 11.4518 6.28517 10.9676 6.2872C10.4909 6.2889 10.0267 6.6182 9.91235 7.04111ZM16.6933 11.745C17.0818 11.745 17.4575 11.7464 17.8327 11.7443C18.0676 11.743 18.2372 11.5812 18.2375 11.3642C18.2375 11.1471 18.0679 10.9853 17.8334 10.9836C17.5335 10.9816 17.2335 10.9833 16.9335 10.9833C16.8548 10.9833 16.7761 10.9833 16.6933 10.9833C16.6933 11.2424 16.6933 11.4856 16.6933 11.745Z" fill="#6666FF"/>
</svg>
