<svg width="36" height="36" viewBox="0 0 36 36" fill="none" xmlns="http://www.w3.org/2000/svg">
<circle cx="18" cy="18" r="17.5" fill="white" stroke="#0512F5"/>
<path d="M20.7158 12.2958C20.6228 12.2021 20.5122 12.1277 20.3904 12.0769C20.2685 12.0261 20.1378 12 20.0058 12C19.8738 12 19.7431 12.0261 19.6212 12.0769C19.4994 12.1277 19.3888 12.2021 19.2958 12.2958L14.2958 17.2958C14.2021 17.3888 14.1277 17.4994 14.0769 17.6212C14.0261 17.7431 14 17.8738 14 18.0058C14 18.1378 14.0261 18.2685 14.0769 18.3904C14.1277 18.5122 14.2021 18.6228 14.2958 18.7158L19.2958 23.7158C19.3888 23.8095 19.4994 23.8839 19.6212 23.9347C19.7431 23.9855 19.8738 24.0116 20.0058 24.0116C20.1378 24.0116 20.2685 23.9855 20.3904 23.9347C20.5122 23.8839 20.6228 23.8095 20.7158 23.7158C20.8095 23.6228 20.8839 23.5122 20.9347 23.3904C20.9855 23.2685 21.0116 23.1378 21.0116 23.0058C21.0116 22.8738 20.9855 22.7431 20.9347 22.6212C20.8839 22.4994 20.8095 22.3888 20.7158 22.2958L16.4158 18.0058L20.7158 13.7158C20.8095 13.6228 20.8839 13.5122 20.9347 13.3904C20.9855 13.2685 21.0116 13.1378 21.0116 13.0058C21.0116 12.8738 20.9855 12.7431 20.9347 12.6212C20.8839 12.4994 20.8095 12.3888 20.7158 12.2958Z" fill="#0512F5"/>
</svg>
