<svg width="36" height="36" viewBox="0 0 36 36" fill="none" xmlns="http://www.w3.org/2000/svg">
<circle cx="18" cy="18" r="17.5" fill="white" stroke="#0512F5"/>
<path d="M14.2958 23.7158C14.3888 23.8095 14.4994 23.8839 14.6212 23.9347C14.7431 23.9855 14.8738 24.0116 15.0058 24.0116C15.1378 24.0116 15.2685 23.9855 15.3904 23.9347C15.5122 23.8839 15.6228 23.8095 15.7158 23.7158L20.7158 18.7158C20.8095 18.6228 20.8839 18.5122 20.9347 18.3904C20.9855 18.2685 21.0116 18.1378 21.0116 18.0058C21.0116 17.8738 20.9855 17.7431 20.9347 17.6212C20.8839 17.4994 20.8095 17.3888 20.7158 17.2958L15.7158 12.2958C15.6228 12.2021 15.5122 12.1277 15.3904 12.0769C15.2685 12.0261 15.1378 12 15.0058 12C14.8738 12 14.7431 12.0261 14.6212 12.0769C14.4994 12.1277 14.3888 12.2021 14.2958 12.2958C14.2021 12.3888 14.1277 12.4994 14.0769 12.6212C14.0261 12.7431 14 12.8738 14 13.0058C14 13.1378 14.0261 13.2685 14.0769 13.3904C14.1277 13.5122 14.2021 13.6228 14.2958 13.7158L18.5958 18.0058L14.2958 22.2958C14.2021 22.3888 14.1277 22.4994 14.0769 22.6212C14.0261 22.7431 14 22.8738 14 23.0058C14 23.1378 14.0261 23.2685 14.0769 23.3904C14.1277 23.5122 14.2021 23.6228 14.2958 23.7158Z" fill="#0512F5"/>
</svg>
