<svg width="25" height="24" viewBox="0 0 25 24" fill="none" xmlns="http://www.w3.org/2000/svg">
<g clip-path="url(#clip0_374_171)">
<path d="M22.0808 18.7033C21.7218 19.5418 21.2967 20.3136 20.8043 21.0232C20.133 21.9906 19.5834 22.6602 19.1598 23.032C18.5032 23.6424 17.7997 23.955 17.0464 23.9728C16.5056 23.9728 15.8534 23.8172 15.0942 23.5017C14.3325 23.1876 13.6325 23.032 12.9925 23.032C12.3212 23.032 11.6013 23.1876 10.8312 23.5017C10.06 23.8172 9.43874 23.9816 8.96373 23.9979C8.24132 24.029 7.52125 23.7076 6.80251 23.032C6.34376 22.6276 5.76997 21.9343 5.08259 20.9521C4.34508 19.9032 3.73875 18.687 3.26374 17.3004C2.75502 15.8026 2.5 14.3523 2.5 12.9482C2.5 11.3398 2.84384 9.95259 3.53254 8.7901C4.07379 7.85636 4.79386 7.11979 5.69508 6.57906C6.59629 6.03834 7.57006 5.76279 8.61872 5.74516C9.19251 5.74516 9.94497 5.92456 10.88 6.27715C11.8125 6.63091 12.4112 6.81031 12.6737 6.81031C12.8699 6.81031 13.535 6.60054 14.6625 6.18233C15.7288 5.79449 16.6287 5.63391 17.3659 5.69716C19.3636 5.86012 20.8644 6.6561 21.8625 8.09013C20.0758 9.18432 19.1921 10.7169 19.2097 12.6829C19.2258 14.2142 19.7754 15.4886 20.8556 16.5004C21.3451 16.97 21.8918 17.333 22.5 17.5907C22.3681 17.9774 22.2289 18.3477 22.0808 18.7033ZM17.4993 0.480137C17.4993 1.68041 17.0654 2.8011 16.2007 3.8384C15.1572 5.07155 13.895 5.78412 12.5262 5.67168C12.5088 5.52769 12.4987 5.37614 12.4987 5.21688C12.4987 4.06462 12.9949 2.83147 13.8762 1.82321C14.3162 1.3127 14.8758 0.888228 15.5544 0.549615C16.2315 0.216055 16.872 0.031589 17.4744 0C17.4919 0.160458 17.4993 0.320926 17.4993 0.480121V0.480137Z" fill="#100F11"/>
</g>
<defs>
<clipPath id="clip0_374_171">
<rect width="20" height="24" fill="white" transform="translate(2.5)"/>
</clipPath>
</defs>
</svg>
