<svg width="28" height="28" viewBox="0 0 28 28" fill="none" xmlns="http://www.w3.org/2000/svg">
<path d="M22.8312 6.34645C23.9005 7.42014 24.5009 8.87375 24.5009 10.3891C24.5009 11.9044 23.9005 13.3581 22.8312 14.4317L14 23.3335L5.16881 14.4312C4.37447 13.6316 3.83364 12.6156 3.61402 11.5101C3.3944 10.4047 3.50576 9.25906 3.93414 8.21661C4.36253 7.17417 5.0889 6.28125 6.02234 5.64966C6.95577 5.01807 8.05478 4.67587 9.18177 4.66589C10.6887 4.67463 12.131 5.27848 13.1947 6.34589C13.5052 6.65329 13.7757 6.99854 14 7.37349C14.2243 6.99873 14.4949 6.65368 14.8053 6.34645C15.3295 5.81438 15.9542 5.39184 16.6432 5.10344C17.3322 4.81503 18.0716 4.6665 18.8185 4.6665C19.5654 4.6665 20.3049 4.81503 20.9939 5.10344C21.6828 5.39184 22.307 5.81438 22.8312 6.34645Z" stroke="#0512F5" stroke-width="1.5" stroke-linecap="round" stroke-linejoin="round"/>
</svg>
