<svg width="24" height="24" viewBox="0 0 24 24" fill="none" xmlns="http://www.w3.org/2000/svg">
<rect x="0.5" y="0.5" width="23" height="23" rx="4.5" fill="white"/>
<rect x="0.5" y="0.5" width="23" height="23" rx="4.5" stroke="#6666FF"/>
<path d="M7.06714 15.1604H17.9316V16.4567C17.9316 16.6121 17.9823 16.7416 18.0837 16.8455C18.1852 16.9485 18.3123 17 18.4652 17C18.6181 17 18.7457 16.9485 18.8479 16.8455C18.9501 16.7425 19.0008 16.6129 19 16.4567V12.6181C19 12.0679 18.8298 11.6035 18.4894 11.2249C18.1489 10.8464 17.7156 10.6313 17.1892 10.5798V8.98062C17.1892 8.41648 17.0029 7.94514 16.6303 7.5666C16.2577 7.18805 15.7938 6.99919 15.2385 7H9.76033C9.20503 7 8.74108 7.18887 8.36846 7.5666C7.99585 7.94432 7.80995 8.41567 7.81075 8.98062V10.5798C7.28282 10.6322 6.84904 10.8472 6.50942 11.2249C6.16981 11.6027 6 12.067 6 12.6181V16.4567C6 16.6121 6.0503 16.7416 6.1509 16.8455C6.2523 16.9485 6.37986 17 6.53357 17C6.68648 17 6.81363 16.9485 6.91503 16.8455C7.01644 16.7425 7.06714 16.6129 7.06714 16.4567V15.1604ZM7.06714 14.0751V12.6181C7.06714 12.3319 7.15969 12.0944 7.34478 11.9056C7.52988 11.7167 7.76448 11.6223 8.04856 11.6223H16.9538C17.2355 11.6223 17.4689 11.7163 17.654 11.9043C17.8391 12.0924 17.932 12.3303 17.9329 12.6181V14.0751H7.06714ZM8.87789 10.5381V8.83836C8.87789 8.61761 8.9475 8.43693 9.08673 8.2963C9.22596 8.15486 9.40421 8.08413 9.6215 8.08413H15.3785C15.595 8.08413 15.7728 8.15486 15.9121 8.2963C16.0513 8.43774 16.1209 8.61843 16.1209 8.83836V10.5369L8.87789 10.5381Z" fill="#6666FF"/>
</svg>
