<svg width="28" height="28" viewBox="0 0 28 28" fill="none" xmlns="http://www.w3.org/2000/svg">
<path d="M14 24.5C12.5549 24.5 11.1938 24.2239 9.91667 23.6717C8.63956 23.1187 7.52734 22.3681 6.58001 21.42C5.63267 20.4719 4.88212 19.3597 4.32834 18.0833C3.77456 16.807 3.49845 15.4459 3.50001 14C3.50001 12.5502 3.77612 11.1879 4.32834 9.91317C4.88134 8.63761 5.6319 7.52656 6.58001 6.58C7.52812 5.63344 8.64034 4.88289 9.91667 4.32833C11.1938 3.77611 12.5549 3.5 14 3.5C15.4498 3.5 16.8121 3.77611 18.0868 4.32833C19.3624 4.88133 20.4738 5.63189 21.4212 6.58C22.3685 7.52811 23.1187 8.63917 23.6717 9.91317C24.2239 11.1887 24.5 12.551 24.5 14C24.5 15.4451 24.2239 16.8062 23.6717 18.0833C23.1187 19.3604 22.3681 20.4727 21.42 21.42C20.4719 22.3673 19.3608 23.1179 18.0868 23.6717C16.8128 24.2254 15.4506 24.5016 14 24.5ZM14 23.3427C14.6845 22.463 15.2491 21.5993 15.694 20.7515C16.1381 19.9037 16.4994 18.9548 16.7778 17.9048H11.2222C11.531 19.0139 11.8996 19.9924 12.3282 20.8402C12.7575 21.6879 13.3148 22.5221 14 23.3427ZM12.5148 23.1677C11.9704 22.526 11.4734 21.7327 11.0238 20.7877C10.5743 19.8434 10.2398 18.8821 10.0205 17.9037H5.54634C6.21523 19.3542 7.16295 20.5442 8.38951 21.4737C9.61684 22.4023 10.992 22.967 12.5148 23.1677ZM15.4852 23.1677C17.0081 22.967 18.3832 22.4023 19.6105 21.4737C20.8371 20.5442 21.7848 19.3542 22.4537 17.9037H17.9807C17.6851 18.8969 17.313 19.8656 16.8642 20.8098C16.4146 21.7548 15.955 22.5416 15.4852 23.1677ZM5.07034 16.7382H9.77784C9.68917 16.2591 9.62695 15.7924 9.59117 15.3382C9.55384 14.8847 9.53517 14.4387 9.53517 14C9.53517 13.5613 9.55345 13.1153 9.59001 12.6618C9.62656 12.2084 9.68878 11.7417 9.77667 11.2618H5.07151C4.94473 11.6663 4.84556 12.1069 4.77401 12.5837C4.70245 13.0597 4.66667 13.5318 4.66667 14C4.66667 14.4682 4.70206 14.9407 4.77284 15.4175C4.84362 15.8943 4.94278 16.3341 5.07034 16.737M10.9445 16.737H17.0555C17.1442 16.2587 17.2064 15.7998 17.2422 15.3603C17.2795 14.9217 17.2982 14.4682 17.2982 14C17.2982 13.5318 17.2799 13.0783 17.2433 12.6397C17.2068 12.201 17.1446 11.7421 17.0567 11.263H10.9433C10.8555 11.7413 10.7932 12.2002 10.7567 12.6397C10.7201 13.0783 10.7018 13.5318 10.7018 14C10.7018 14.4682 10.7201 14.9217 10.7567 15.3603C10.7932 15.799 10.8566 16.2579 10.9445 16.737ZM18.2233 16.737H22.9297C23.0564 16.3333 23.1556 15.8935 23.2272 15.4175C23.298 14.9407 23.3333 14.4682 23.3333 14C23.3333 13.5318 23.298 13.0593 23.2272 12.5825C23.1564 12.1057 23.0572 11.6659 22.9297 11.263H18.2222C18.3108 11.7413 18.3731 12.2076 18.4088 12.6618C18.4462 13.1161 18.4648 13.5621 18.4648 14C18.4648 14.4379 18.4466 14.8839 18.41 15.3382C18.3735 15.7924 18.3112 16.2591 18.2233 16.7382M17.9807 10.0963H22.4537C21.77 8.61545 20.8336 7.42544 19.6443 6.52633C18.4551 5.62722 17.0687 5.05517 15.4852 4.81017C16.0296 5.5265 16.5192 6.34589 16.954 7.26833C17.3888 8.19 17.731 9.13267 17.9807 10.0963ZM11.2222 10.0963H16.7778C16.4698 9.00122 16.0899 8.01111 15.638 7.126C15.1861 6.24089 14.6401 5.418 14 4.65733C13.3599 5.41722 12.8139 6.24011 12.362 7.126C11.9101 8.01189 11.5294 9.002 11.2222 10.0963ZM5.54751 10.0963H10.0205C10.2702 9.13345 10.6124 8.19078 11.0472 7.26833C11.482 6.34589 11.9716 5.5265 12.516 4.81017C10.9185 5.05594 9.52856 5.6315 8.34634 6.53683C7.16412 7.44372 6.23078 8.62983 5.54634 10.0952" fill="#0512F5"/>
</svg>
