<svg width="26" height="25" viewBox="0 0 26 25" fill="none" xmlns="http://www.w3.org/2000/svg">
<path fill-rule="evenodd" clip-rule="evenodd" d="M13 2.5C15.5859 2.5 18.0658 3.44821 19.8943 5.13604C21.7228 6.82387 22.75 9.11305 22.75 11.5C22.75 14.574 20.9343 17.09 19.0212 18.895C18.0653 19.7871 17.0223 20.5958 15.9055 21.311L15.444 21.601L15.2273 21.734L14.8189 21.974L14.4549 22.179L14.0043 22.421C13.6984 22.5822 13.3522 22.6669 13 22.6669C12.6478 22.6669 12.3016 22.5822 11.9958 22.421L11.5451 22.179L10.9818 21.859L10.7737 21.734L10.3296 21.461C9.12473 20.7085 8.00248 19.8491 6.97883 18.895C5.06567 17.089 3.25 14.574 3.25 11.5C3.25 9.11305 4.27723 6.82387 6.10571 5.13604C7.93419 3.44821 10.4141 2.5 13 2.5ZM13 4.5C10.9888 4.5 9.05992 5.2375 7.63777 6.55025C6.21562 7.86301 5.41667 9.64348 5.41667 11.5C5.41667 13.822 6.79467 15.86 8.52692 17.496C9.27174 18.192 10.0768 18.8308 10.9341 19.406L11.4303 19.732C11.5906 19.8353 11.7448 19.9313 11.8928 20.02L12.3153 20.27L12.6869 20.479L13 20.648L13.4929 20.379L13.8905 20.149C14.1021 20.025 14.3285 19.886 14.5698 19.732L15.0659 19.406C15.9232 18.8308 16.7283 18.192 17.4731 17.496C19.2053 15.861 20.5833 13.822 20.5833 11.5C20.5833 9.64348 19.7844 7.86301 18.3622 6.55025C16.9401 5.2375 15.0112 4.5 13 4.5ZM13 7.5C14.1493 7.5 15.2515 7.92143 16.0641 8.67157C16.8768 9.42172 17.3333 10.4391 17.3333 11.5C17.3333 12.5609 16.8768 13.5783 16.0641 14.3284C15.2515 15.0786 14.1493 15.5 13 15.5C11.8507 15.5 10.7485 15.0786 9.93587 14.3284C9.12321 13.5783 8.66667 12.5609 8.66667 11.5C8.66667 10.4391 9.12321 9.42172 9.93587 8.67157C10.7485 7.92143 11.8507 7.5 13 7.5ZM13 9.5C12.4254 9.5 11.8743 9.71071 11.4679 10.0858C11.0616 10.4609 10.8333 10.9696 10.8333 11.5C10.8333 12.0304 11.0616 12.5391 11.4679 12.9142C11.8743 13.2893 12.4254 13.5 13 13.5C13.5746 13.5 14.1257 13.2893 14.5321 12.9142C14.9384 12.5391 15.1667 12.0304 15.1667 11.5C15.1667 10.9696 14.9384 10.4609 14.5321 10.0858C14.1257 9.71071 13.5746 9.5 13 9.5Z" fill="white"/>
</svg>
