<svg width="24" height="25" viewBox="0 0 24 25" fill="none" xmlns="http://www.w3.org/2000/svg">
<path d="M21 15.0125L16.5853 13.0335L16.5684 13.026C16.2815 12.9022 15.9681 12.8524 15.6569 12.8811C15.3458 12.9098 15.0467 13.016 14.7872 13.19C14.7508 13.2144 14.7158 13.2406 14.6822 13.2688L12.5906 15.05C11.3719 14.3891 10.1128 13.1403 9.45094 11.9366L11.2378 9.8122C11.2665 9.77788 11.2931 9.74188 11.3175 9.70439C11.487 9.44579 11.5899 9.14928 11.617 8.84128C11.6442 8.53328 11.5948 8.22335 11.4731 7.93908C11.4702 7.93364 11.4677 7.928 11.4656 7.9222L9.48751 3.50002C9.32513 3.13019 9.04801 2.82247 8.69716 2.62239C8.3463 2.42231 7.94035 2.34051 7.53938 2.38908C6.17848 2.56785 4.92918 3.2359 4.02482 4.26844C3.12046 5.30099 2.62288 6.62742 2.62501 8.00002C2.62501 15.651 8.84907 21.875 16.5 21.875C17.8726 21.8771 19.199 21.3796 20.2316 20.4752C21.2641 19.5708 21.9322 18.3215 22.1109 16.9606C22.1595 16.5597 22.0777 16.1537 21.8776 15.8029C21.6775 15.452 21.3698 15.1749 21 15.0125ZM16.5 19.625C13.418 19.6213 10.4633 18.3953 8.284 16.216C6.1047 14.0367 4.87873 11.082 4.87501 8.00002C4.87286 7.22329 5.13655 6.46922 5.62227 5.86309C6.10799 5.25697 6.78648 4.8353 7.54501 4.66814L9.30938 8.60564L7.51313 10.745C7.4841 10.7796 7.45717 10.8159 7.43251 10.8538C7.25546 11.1243 7.15137 11.436 7.13034 11.7586C7.10932 12.0812 7.17207 12.4038 7.31251 12.695C8.19563 14.5025 10.0153 16.31 11.8416 17.195C12.1347 17.334 12.4589 17.3945 12.7825 17.3707C13.106 17.3469 13.4179 17.2395 13.6875 17.0591C13.7237 17.0346 13.7585 17.008 13.7916 16.9794L15.8944 15.1916L19.8319 16.955C19.6647 17.7135 19.243 18.392 18.6369 18.8778C18.0308 19.3635 17.2767 19.6272 16.5 19.625Z" fill="white"/>
</svg>
