<svg width="23" height="21" viewBox="0 0 23 21" fill="none" xmlns="http://www.w3.org/2000/svg">
<path d="M4.66667 2.3345C4.66636 2.95334 4.42023 3.54671 3.98242 3.98407C3.54462 4.42144 2.95101 4.66698 2.33217 4.66667C1.71333 4.66636 1.11996 4.42023 0.682593 3.98242C0.245227 3.54462 -0.000309127 2.95101 2.92088e-07 2.33217C0.000309711 1.71333 0.246439 1.11996 0.684243 0.682593C1.12205 0.245227 1.71566 -0.000309127 2.3345 2.92088e-07C2.95334 0.000309711 3.54671 0.246439 3.98407 0.684243C4.42144 1.12205 4.66698 1.71566 4.66667 2.3345ZM4.73667 6.3945H0.0700002V21.0012H4.73667V6.3945ZM12.11 6.3945H7.46667V21.0012H12.0633V13.3362C12.0633 9.06617 17.6283 8.6695 17.6283 13.3362V21.0012H22.2367V11.7495C22.2367 4.55117 14 4.8195 12.0633 8.3545L12.11 6.3945Z" fill="white"/>
</svg>
