<svg width="10" height="12" viewBox="0 0 10 12" fill="none" xmlns="http://www.w3.org/2000/svg">
<path d="M7.08019 6.4576C7.88039 6.83534 8.56269 7.42376 9.05393 8.15976C9.54517 8.89576 9.82682 9.75159 9.86869 10.6355C9.87426 10.7164 9.86361 10.7977 9.83735 10.8745C9.8111 10.9513 9.76977 11.0221 9.71579 11.0827C9.66181 11.1433 9.59627 11.1925 9.52301 11.2274C9.44976 11.2623 9.37026 11.2823 9.2892 11.2861C9.20813 11.2899 9.12712 11.2774 9.05093 11.2495C8.97473 11.2215 8.90489 11.1786 8.84549 11.1233C8.7861 11.068 8.73835 11.0014 8.70505 10.9274C8.67174 10.8534 8.65356 10.7735 8.65156 10.6924C8.60727 9.75353 8.20314 8.86782 7.52308 8.21909C6.84301 7.57035 5.93924 7.20841 4.99937 7.20841C4.05951 7.20841 3.15574 7.57035 2.47567 8.21909C1.7956 8.86782 1.39148 9.75353 1.34719 10.6924C1.33624 10.8513 1.26351 10.9996 1.14456 11.1055C1.02562 11.2115 0.869919 11.2666 0.710806 11.2592C0.551692 11.2518 0.401815 11.1823 0.293269 11.0657C0.184723 10.9492 0.126138 10.7947 0.13006 10.6355C0.171847 9.75168 0.453376 8.89591 0.944467 8.15991C1.43556 7.42392 2.11769 6.83546 2.91775 6.4576C2.40507 6.02998 2.03656 5.4548 1.86235 4.81032C1.68814 4.16584 1.71669 3.48334 1.9441 2.85566C2.17152 2.22797 2.58676 1.68558 3.13336 1.30225C3.67995 0.918923 4.33136 0.713272 4.99897 0.713272C5.66658 0.713272 6.31798 0.918923 6.86458 1.30225C7.41117 1.68558 7.82642 2.22797 8.05383 2.85566C8.28125 3.48334 8.30979 4.16584 8.13558 4.81032C7.96137 5.4548 7.59286 6.02998 7.08019 6.4576ZM7.03062 3.96079C7.03062 3.42207 6.81662 2.90541 6.43568 2.52448C6.05475 2.14355 5.53809 1.92954 4.99937 1.92954C4.46065 1.92954 3.944 2.14355 3.56306 2.52448C3.18213 2.90541 2.96812 3.42207 2.96812 3.96079C2.96812 4.49951 3.18213 5.01617 3.56306 5.3971C3.944 5.77804 4.46065 5.99204 4.99937 5.99204C5.53809 5.99204 6.05475 5.77804 6.43568 5.3971C6.81662 5.01617 7.03062 4.49951 7.03062 3.96079Z" fill="#6666FF"/>
</svg>
