<svg width="13" height="8" viewBox="0 0 13 8" fill="none" xmlns="http://www.w3.org/2000/svg">
<path d="M0.0770293 1.11536C0.127798 0.993503 0.202192 0.882902 0.29592 0.789939C0.388883 0.69621 0.499484 0.621817 0.621344 0.571048C0.743203 0.520279 0.873909 0.494141 1.00592 0.494141C1.13793 0.494141 1.26864 0.520279 1.3905 0.571048C1.51236 0.621817 1.62296 0.69621 1.71592 0.789939L6.00592 5.08994L10.2959 0.789939C10.3889 0.696211 10.4995 0.621817 10.6213 0.571048C10.7432 0.520279 10.8739 0.494141 11.0059 0.494141C11.1379 0.494141 11.2686 0.520279 11.3905 0.571048C11.5124 0.621817 11.623 0.696211 11.7159 0.789939C11.8096 0.882902 11.884 0.993503 11.9348 1.11536C11.9856 1.23722 12.0117 1.36793 12.0117 1.49994C12.0117 1.63195 11.9856 1.76266 11.9348 1.88452C11.884 2.00637 11.8096 2.11698 11.7159 2.20994L6.71592 7.20994C6.62296 7.30367 6.51236 7.37806 6.3905 7.42883C6.26864 7.4796 6.13793 7.50574 6.00592 7.50574C5.87391 7.50574 5.7432 7.4796 5.62134 7.42883C5.49948 7.37806 5.38888 7.30367 5.29592 7.20994L0.29592 2.20994C0.202192 2.11698 0.127798 2.00637 0.0770293 1.88452C0.0262606 1.76266 0.00012214 1.63195 0.000122142 1.49994C0.000122144 1.36793 0.0262606 1.23722 0.0770293 1.11536Z" fill="#494949"/>
</svg>
