<svg width="24" height="24" viewBox="0 0 24 24" fill="none" xmlns="http://www.w3.org/2000/svg">
<path d="M6.76667 0.333313H16.5667C20.3 0.333313 23.3333 3.36665 23.3333 7.09998V16.9C23.3333 18.6946 22.6204 20.4157 21.3514 21.6847C20.0824 22.9537 18.3613 23.6666 16.5667 23.6666H6.76667C3.03333 23.6666 0 20.6333 0 16.9V7.09998C0 5.30535 0.712915 3.58422 1.98191 2.31522C3.25091 1.04623 4.97204 0.333313 6.76667 0.333313ZM6.53333 2.66665C5.41942 2.66665 4.35114 3.10915 3.56349 3.8968C2.77583 4.68445 2.33333 5.75274 2.33333 6.86665V17.1333C2.33333 19.455 4.21167 21.3333 6.53333 21.3333H16.8C17.9139 21.3333 18.9822 20.8908 19.7699 20.1032C20.5575 19.3155 21 18.2472 21 17.1333V6.86665C21 4.54498 19.1217 2.66665 16.8 2.66665H6.53333ZM17.7917 4.41665C18.1784 4.41665 18.5494 4.57029 18.8229 4.84378C19.0964 5.11727 19.25 5.48821 19.25 5.87498C19.25 6.26175 19.0964 6.63269 18.8229 6.90618C18.5494 7.17967 18.1784 7.33331 17.7917 7.33331C17.4049 7.33331 17.034 7.17967 16.7605 6.90618C16.487 6.63269 16.3333 6.26175 16.3333 5.87498C16.3333 5.48821 16.487 5.11727 16.7605 4.84378C17.034 4.57029 17.4049 4.41665 17.7917 4.41665ZM11.6667 6.16665C13.2138 6.16665 14.6975 6.78123 15.7915 7.87519C16.8854 8.96915 17.5 10.4529 17.5 12C17.5 13.5471 16.8854 15.0308 15.7915 16.1248C14.6975 17.2187 13.2138 17.8333 11.6667 17.8333C10.1196 17.8333 8.63584 17.2187 7.54188 16.1248C6.44792 15.0308 5.83333 13.5471 5.83333 12C5.83333 10.4529 6.44792 8.96915 7.54188 7.87519C8.63584 6.78123 10.1196 6.16665 11.6667 6.16665ZM11.6667 8.49998C10.7384 8.49998 9.84817 8.86873 9.19179 9.52511C8.53542 10.1815 8.16667 11.0717 8.16667 12C8.16667 12.9282 8.53542 13.8185 9.19179 14.4749C9.84817 15.1312 10.7384 15.5 11.6667 15.5C12.5949 15.5 13.4852 15.1312 14.1415 14.4749C14.7979 13.8185 15.1667 12.9282 15.1667 12C15.1667 11.0717 14.7979 10.1815 14.1415 9.52511C13.4852 8.86873 12.5949 8.49998 11.6667 8.49998Z" fill="white"/>
</svg>
